<svg fill="none" height="40" viewBox="0 0 40 40" width="40" xmlns="http://www.w3.org/2000/svg"><circle cx="20" cy="20" fill="#f4f3eb" r="20"/><path clip-rule="evenodd" d="m24.6991 27.2941h-9.3982c-1.2987 0-2.3597-1.061-2.3597-2.3597v-9.3982c0-1.2987 1.061-2.3597 2.3597-2.3597h9.3982c1.2987 0 2.3597 1.061 2.3597 2.3597v9.3982c0 1.3045-1.0552 2.3597-2.3597 2.3597zm-4.6962-3.4323c-.9683 0-1.8785-.3769-2.5627-1.061-.6841-.6841-1.061-1.5944-1.061-2.5626 0-.9683.3769-1.8785 1.061-2.5627.6842-.6841 1.5944-1.061 2.5627-1.061.9682 0 1.8785.3769 2.5626 1.061.6841.6842 1.061 1.5944 1.061 2.5627 0 .9682-.3769 1.8785-1.061 2.5626-.6899.6841-1.5944 1.061-2.5626 1.061zm0-6.4761c-1.5712 0-2.8526 1.2755-2.8526 2.8525 0 1.5712 1.2756 2.8525 2.8526 2.8525 1.5712 0 2.8525-1.2755 2.8525-2.8525-.0058-1.5712-1.2813-2.8525-2.8525-2.8525zm5.0257-1.586c0 .3843-.3115.6958-.6958.6958s-.6958-.3115-.6958-.6958c0-.3842.3115-.6957.6958-.6957s.6958.3115.6958.6957z" fill="#0d1317" fill-rule="evenodd"/></svg>